<svg width="24" height="24" viewBox="0 0 24 24" fill="none" xmlns="http://www.w3.org/2000/svg">
<path d="M9 7C8.359 7 4.639 7 4 7C2.895 7 2 7.895 2 9C2 10.105 2.895 11 4 11C4.639 11 8.359 11 9 11C10.105 11 11 10.105 11 9C11 7.895 10.105 7 9 7ZM11 4C11 4.598 11 6 11 6C11 6 9.507 6 9 6C7.895 6 7 5.105 7 4C7 2.895 7.895 2 9 2C10.105 2 11 2.895 11 4ZM7 14C7 14.641 7 18.361 7 19C7 20.105 7.895 21 9 21C10.105 21 11 20.105 11 19C11 18.361 11 14.641 11 14C11 12.895 10.105 12 9 12C7.895 12 7 12.895 7 14ZM4 12C4.598 12 6 12 6 12C6 12 6 13.493 6 14C6 15.105 5.105 16 4 16C2.895 16 2 15.105 2 14C2 12.895 2.895 12 4 12ZM14 16C14.641 16 18.361 16 19 16C20.105 16 21 15.105 21 14C21 12.895 20.105 12 19 12C18.361 12 14.641 12 14 12C12.895 12 12 12.895 12 14C12 15.104 12.895 16 14 16ZM12 19C12 18.402 12 17 12 17C12 17 13.493 17 14 17C15.105 17 16 17.895 16 19C16 20.105 15.105 21 14 21C12.895 21 12 20.104 12 19ZM16 9C16 8.359 16 4.639 16 4C16 2.895 15.105 2 14 2C12.895 2 12 2.895 12 4C12 4.639 12 8.359 12 9C12 10.105 12.895 11 14 11C15.104 11 16 10.104 16 9ZM19 11C18.402 11 17 11 17 11C17 11 17 9.507 17 9C17 7.895 17.895 7 19 7C20.105 7 21 7.895 21 9C21 10.105 20.104 11 19 11Z" fill="#ABADC6"/>
</svg>
