<svg width="42" height="40" viewBox="0 0 42 40" fill="none" xmlns="http://www.w3.org/2000/svg">
<path d="M37.2365 26.3039C31.8758 31.6472 30.1296 23.4269 23.966 17.2832C17.8025 11.1396 9.55548 9.39898 14.9161 4.05563C20.2769 -1.28772 30.4629 -1.47995 36.6277 4.66372C42.7913 10.8074 42.5985 20.9618 37.2378 26.3053L37.2365 26.3039Z" fill="url(#paint0_radial_1161_26320)"/>
<path d="M18.3134 10.6346C17.3458 11.8937 16.2538 13.428 15.1264 15.2295C12.2431 19.8416 7.73226 22.0283 2.95429 25.3629C0.810815 26.8592 0.208496 28.4892 0.208496 28.4892C0.208496 28.4892 1.1159 27.0242 3.91145 26.3128C7.69691 25.3498 15.3123 23.4264 19.145 20.4653C21.1875 18.8877 23.0246 17.2054 24.2293 15.4353C22.0033 13.3795 19.7224 11.8714 18.3134 10.6346Z" fill="url(#paint1_linear_1161_26320)"/>
<path d="M27.0992 23.8929C27.9379 23.2732 28.8371 22.5186 29.6588 21.8058C28.4407 20.2402 26.9612 18.1844 25.0343 16.2623C24.9673 16.1955 24.8992 16.13 24.8321 16.0645C23.6732 17.262 22.5837 18.7268 21.5571 20.2938C18.9003 24.3476 17.5746 32.0947 16.909 35.9455C16.4181 38.79 15.0254 39.8092 15.0254 39.8092C15.0254 39.8092 16.6058 39.0807 17.9329 36.8258C20.889 31.8 22.7214 27.1292 27.1017 23.8929H27.0992Z" fill="url(#paint2_linear_1161_26320)"/>
<path d="M25.0176 16.2499C24.0784 15.3079 23.1078 14.4746 22.1776 13.7252C22.1541 13.7068 22.1306 13.6872 22.1071 13.6689C22.0378 13.6138 21.9686 13.5575 21.8994 13.5025C21.271 13.002 20.6637 12.5369 20.1031 12.1071C19.9046 12.1884 19.6721 12.2421 19.3887 12.2473C18.2861 12.2683 15.7583 11.7966 14.5173 12.5958C12.5787 13.8431 12.0601 16.7452 11.0229 17.3937C10.0157 18.0239 8.93541 17.0085 7.51021 17.0124C5.20976 17.0177 4.16602 19.701 4.16602 19.701C4.38679 19.7914 5.37045 18.9397 7.03341 18.8061C8.78779 18.6646 11.0451 20.4359 12.7747 20.0493C14.6832 19.6223 15.4892 18.2585 16.2339 16.732C17.6512 17.4173 18.9681 17.2863 20.0326 17.0006C19.6694 17.7815 19.322 18.5401 18.9745 19.1742C18.2742 20.5853 17.2489 21.5155 15.8681 22.1733C12.5265 23.7638 10.26 25.353 9.63952 28.077C9.52194 28.7582 9.54939 29.5704 9.64343 30.2361C9.51803 30.2558 8.06541 30.3225 7.13138 31.4126C5.54419 33.2639 7.67611 35.604 7.48148 36.8499C7.33647 37.7735 6.04451 39.0169 6.04191 39.1505C6.03929 39.3039 6.19735 39.3943 6.34498 39.3261C6.57357 39.2199 9.14311 38.2309 9.34689 36.9467C9.41613 36.0165 9.17186 35.4545 9.12352 34.7313C9.09348 34.2242 9.10001 33.6662 9.51019 33.4775C10.2953 33.2626 11.6656 33.9451 12.4128 33.3844C13.3325 32.6965 13.2293 31.2789 13.4096 30.0592C13.4788 29.6084 13.7871 28.3991 15.5781 28.1032C19.0228 27.5319 21.7609 25.6361 23.4565 22.075C24.3252 20.4149 26.0339 19.9683 27.3586 18.878C26.657 18.0135 25.8838 17.1186 25.0176 16.2499Z" fill="#3C356C"/>
<path opacity="0.9" d="M33.5368 23.9145C31.5548 25.8965 29.4954 20.6867 25.0113 16.2025C20.5271 11.7183 15.3174 9.66032 17.2994 7.677C19.2814 5.69497 24.8358 7.40975 29.32 11.8939C33.8041 16.378 35.5189 21.9311 33.5368 23.9145Z" fill="url(#paint3_radial_1161_26320)"/>
<path d="M33.5244 14.6749L30.0304 13.6703L26.5377 14.684L27.5572 11.2354L26.5298 7.79057L30.0238 8.7952L33.5153 7.78149L32.497 11.2302L33.5244 14.6749Z" fill="url(#paint4_linear_1161_26320)"/>
<path opacity="0.6" d="M37.2365 26.3039C31.8758 31.6472 30.1296 23.4269 23.966 17.2832C17.8025 11.1396 9.55548 9.39898 14.9161 4.05563C20.2769 -1.28772 30.4629 -1.47995 36.6277 4.66372C42.7913 10.8074 42.5985 20.9618 37.2378 26.3053L37.2365 26.3039Z" fill="url(#paint5_radial_1161_26320)"/>
<defs>
<radialGradient id="paint0_radial_1161_26320" cx="0" cy="0" r="1" gradientUnits="userSpaceOnUse" gradientTransform="translate(21.0084 19.2857) rotate(5.34188) scale(21.2204 18.3352)">
<stop stop-color="#EABEFF"/>
<stop offset="0.6" stop-color="#695D92"/>
<stop offset="0.83" stop-color="#484076"/>
<stop offset="0.95" stop-color="#3C356C"/>
</radialGradient>
<linearGradient id="paint1_linear_1161_26320" x1="-2.40155" y1="32.2018" x2="26.6002" y2="9.37851" gradientUnits="userSpaceOnUse">
<stop stop-color="#EABEFF"/>
<stop offset="0.54" stop-color="#695D92"/>
<stop offset="0.74" stop-color="#484076"/>
<stop offset="0.85" stop-color="#3C356C"/>
</linearGradient>
<linearGradient id="paint2_linear_1161_26320" x1="15.6627" y1="37.4673" x2="28.1718" y2="16.7294" gradientUnits="userSpaceOnUse">
<stop stop-color="#EABEFF"/>
<stop offset="0.5" stop-color="#695D92"/>
<stop offset="0.68" stop-color="#484076"/>
<stop offset="0.78" stop-color="#3C356C"/>
</linearGradient>
<radialGradient id="paint3_radial_1161_26320" cx="0" cy="0" r="1" gradientUnits="userSpaceOnUse" gradientTransform="translate(22.8484 18.5035) rotate(-44.0286) scale(26.6413 10.2206)">
<stop stop-color="#EABEFF"/>
<stop offset="0.6" stop-color="#695D92"/>
<stop offset="0.83" stop-color="#484076"/>
<stop offset="0.95" stop-color="#3C356C"/>
</radialGradient>
<linearGradient id="paint4_linear_1161_26320" x1="26.5336" y1="7.78531" x2="33.4265" y2="14.7715" gradientUnits="userSpaceOnUse">
<stop stop-color="white"/>
<stop offset="1" stop-color="#EABEFF"/>
</linearGradient>
<radialGradient id="paint5_radial_1161_26320" cx="0" cy="0" r="1" gradientUnits="userSpaceOnUse" gradientTransform="translate(21.0084 19.2857) rotate(5.34188) scale(21.2204 18.3352)">
<stop stop-color="#EABEFF"/>
<stop offset="0.6" stop-color="#695D92"/>
<stop offset="0.83" stop-color="#484076"/>
<stop offset="0.95" stop-color="#3C356C"/>
</radialGradient>
</defs>
</svg>
