
<svg width="208" height="40" viewBox="0 0 208 40" fill="none" xmlns="http://www.w3.org/2000/svg">
<mask id="mask0_1161_26316" style="mask-type:luminance" maskUnits="userSpaceOnUse" x="0" y="0" width="208" height="40">
<path d="M207.485 0H0V39.9856H207.485V0Z" fill="white"/>
</mask>
<g mask="url(#mask0_1161_26316)">
<path d="M37.2365 26.3039C31.8758 31.6472 30.1296 23.4269 23.966 17.2832C17.8025 11.1396 9.55548 9.39898 14.9161 4.05563C20.2769 -1.28772 30.4629 -1.47995 36.6277 4.66372C42.7913 10.8074 42.5985 20.9618 37.2378 26.3053L37.2365 26.3039Z" fill="url(#paint0_radial_1161_26316)"/>
<path d="M18.3134 10.6346C17.3458 11.8937 16.2538 13.428 15.1264 15.2295C12.2431 19.8416 7.73226 22.0283 2.95429 25.3629C0.810815 26.8592 0.208496 28.4892 0.208496 28.4892C0.208496 28.4892 1.1159 27.0242 3.91145 26.3128C7.69691 25.3498 15.3123 23.4264 19.145 20.4653C21.1875 18.8877 23.0246 17.2054 24.2293 15.4353C22.0033 13.3795 19.7224 11.8714 18.3134 10.6346Z" fill="url(#paint1_linear_1161_26316)"/>
<path d="M27.0992 23.8929C27.9379 23.2732 28.8371 22.5186 29.6588 21.8058C28.4407 20.2402 26.9612 18.1844 25.0343 16.2623C24.9673 16.1955 24.8992 16.13 24.8321 16.0645C23.6732 17.262 22.5837 18.7268 21.5571 20.2938C18.9003 24.3476 17.5746 32.0947 16.909 35.9455C16.4181 38.79 15.0254 39.8092 15.0254 39.8092C15.0254 39.8092 16.6058 39.0807 17.9329 36.8258C20.889 31.8 22.7214 27.1292 27.1017 23.8929H27.0992Z" fill="url(#paint2_linear_1161_26316)"/>
<path d="M25.0176 16.2499C24.0784 15.3079 23.1078 14.4746 22.1776 13.7252C22.1541 13.7068 22.1306 13.6872 22.1071 13.6689C22.0378 13.6138 21.9686 13.5575 21.8994 13.5025C21.271 13.002 20.6637 12.5369 20.1031 12.1071C19.9046 12.1884 19.6721 12.2421 19.3887 12.2473C18.2861 12.2683 15.7583 11.7966 14.5173 12.5958C12.5787 13.8431 12.0601 16.7452 11.0229 17.3937C10.0157 18.0239 8.93541 17.0085 7.51021 17.0124C5.20976 17.0177 4.16602 19.701 4.16602 19.701C4.38679 19.7914 5.37045 18.9397 7.03341 18.8061C8.78779 18.6646 11.0451 20.4359 12.7747 20.0493C14.6832 19.6223 15.4892 18.2585 16.2339 16.732C17.6512 17.4173 18.9681 17.2863 20.0326 17.0006C19.6694 17.7815 19.322 18.5401 18.9745 19.1742C18.2742 20.5853 17.2489 21.5155 15.8681 22.1733C12.5265 23.7638 10.26 25.353 9.63952 28.077C9.52194 28.7582 9.54939 29.5704 9.64343 30.2361C9.51803 30.2558 8.06541 30.3225 7.13138 31.4126C5.54419 33.2639 7.67611 35.604 7.48148 36.8499C7.33647 37.7735 6.04451 39.0169 6.04191 39.1505C6.03929 39.3039 6.19735 39.3943 6.34497 39.3261C6.57357 39.2199 9.14311 38.2309 9.34689 36.9467C9.41613 36.0165 9.17186 35.4545 9.12352 34.7313C9.09348 34.2242 9.10001 33.6662 9.51019 33.4775C10.2953 33.2626 11.6656 33.9451 12.4128 33.3844C13.3325 32.6965 13.2293 31.2789 13.4096 30.0592C13.4788 29.6084 13.7871 28.3991 15.5781 28.1032C19.0228 27.5319 21.7609 25.6361 23.4565 22.075C24.3252 20.4149 26.0339 19.9683 27.3586 18.878C26.657 18.0135 25.8838 17.1186 25.0176 16.2499Z" fill="#3C356C"/>
<path opacity="0.9" d="M33.5368 23.9145C31.5548 25.8965 29.4954 20.6867 25.0113 16.2025C20.5271 11.7183 15.3174 9.66032 17.2994 7.677C19.2814 5.69497 24.8358 7.40975 29.32 11.8939C33.8041 16.378 35.5189 21.9311 33.5368 23.9145Z" fill="url(#paint3_radial_1161_26316)"/>
<path d="M33.5244 14.6749L30.0304 13.6703L26.5377 14.684L27.5572 11.2354L26.5298 7.79057L30.0238 8.7952L33.5153 7.78149L32.497 11.2302L33.5244 14.6749Z" fill="url(#paint4_linear_1161_26316)"/>
<path opacity="0.6" d="M37.2365 26.3039C31.8758 31.6472 30.1296 23.4269 23.966 17.2832C17.8025 11.1396 9.55548 9.39898 14.9161 4.05563C20.2769 -1.28772 30.4629 -1.47995 36.6277 4.66372C42.7913 10.8074 42.5985 20.9618 37.2378 26.3053L37.2365 26.3039Z" fill="url(#paint5_radial_1161_26316)"/>
</g>
<path d="M65.1645 12.3568C64.3957 11.9275 63.5069 11.7094 62.5222 11.7094C61.4108 11.7094 60.4051 11.9508 59.5346 12.4254C59.0833 12.6723 58.6793 12.9726 58.327 13.3224C57.9898 12.9315 57.5943 12.6064 57.1459 12.3554C56.3769 11.9261 55.4883 11.7081 54.5035 11.7081C53.5188 11.7081 52.5563 11.9522 51.7541 12.4336C51.6244 12.5118 51.4978 12.5955 51.3751 12.6846C51.3028 12.5447 51.2094 12.4185 51.0953 12.3047C50.7887 12.003 50.3877 11.8507 49.9043 11.8507C49.421 11.8507 49.0434 12.0016 48.7301 12.3006C48.4126 12.6023 48.251 12.9987 48.251 13.4788V24.0316C48.251 24.4938 48.4097 24.8847 48.7245 25.1934C49.0379 25.5033 49.4348 25.6595 49.9043 25.6595C50.3737 25.6595 50.7943 25.5004 51.1008 25.1878C51.4043 24.8793 51.5577 24.4897 51.5577 24.0316V17.3438C51.5577 16.562 51.7875 15.9421 52.261 15.4497C52.7276 14.9642 53.3028 14.7269 54.023 14.7269C54.7432 14.7269 55.2571 14.9244 55.6763 15.329C56.0872 15.7281 56.2962 16.3741 56.2962 17.2478V24.0301C56.2962 24.4924 56.4549 24.8832 56.7697 25.1919C57.0831 25.5019 57.4815 25.6583 57.9495 25.6583C58.4174 25.6583 58.8395 25.4992 59.146 25.1864C59.4495 24.8778 59.6029 24.4882 59.6029 24.0301V17.3425C59.6029 16.5593 59.8298 15.9393 60.2965 15.4456C60.7547 14.9614 61.3258 14.7255 62.0445 14.7255C62.7633 14.7255 63.2786 14.923 63.6965 15.3276C64.1073 15.7267 64.3163 16.3728 64.3163 17.2464V24.0289C64.3163 24.4897 64.475 24.8805 64.7898 25.1905C65.1032 25.5004 65.5016 25.6569 65.9695 25.6569C66.4377 25.6569 66.8596 25.4978 67.1661 25.1851C67.4684 24.8764 67.623 24.487 67.623 24.0289V17.2464C67.623 16.0957 67.4085 15.0945 66.9878 14.2715C66.5573 13.4335 65.9459 12.7889 65.1686 12.3541L65.1645 12.3568Z" fill="white"/>
<path d="M80.5419 12.6133C79.5794 12.029 78.4178 11.7328 77.0919 11.7328C75.7658 11.7328 74.5471 12.0345 73.5066 12.6311C72.4648 13.2278 71.6373 14.0644 71.0481 15.115C70.4617 16.1615 70.165 17.3822 70.165 18.7442C70.165 20.1062 70.4798 21.3103 71.1024 22.3582C71.725 23.4075 72.5984 24.2429 73.696 24.838C74.7894 25.4305 76.0542 25.7324 77.454 25.7324C78.2368 25.7324 79.0641 25.5896 79.9137 25.3071C80.7676 25.0246 81.4947 24.6502 82.0712 24.2003C82.5573 23.8341 82.6397 23.4061 82.6228 23.1085C82.6006 22.7094 82.4056 22.3487 82.0393 22.0305C81.7496 21.789 81.4124 21.6698 81.0183 21.6834C80.6506 21.6943 80.3066 21.8138 79.9932 22.04C79.7076 22.2513 79.3204 22.442 78.8413 22.6093C78.3677 22.7738 77.901 22.8576 77.454 22.8576C76.6169 22.8576 75.8703 22.6764 75.2309 22.3186C74.5945 21.962 74.0874 21.4708 73.7267 20.8592C73.5679 20.5917 73.444 20.3022 73.3548 19.9937H81.9808C82.414 19.9937 82.7817 19.8538 83.07 19.5808C83.3597 19.3065 83.5128 18.9444 83.5128 18.5329C83.5128 17.2259 83.2594 16.0518 82.7593 15.041C82.2524 14.0164 81.5058 13.2003 80.5419 12.6147V12.6133ZM77.0919 14.6089C77.8063 14.6089 78.4163 14.7694 78.9053 15.0848C79.3998 15.4044 79.7869 15.8474 80.0558 16.3988C80.1841 16.6622 80.2856 16.9502 80.358 17.2574H73.3896C73.4592 17.0174 73.5442 16.7938 73.6445 16.5895C73.9482 15.9695 74.3799 15.4963 74.9663 15.1397C75.5457 14.7872 76.2617 14.6089 77.0919 14.6089Z" fill="white"/>
<path d="M92.3968 22.4281H91.5778C91.1948 22.4281 90.8771 22.269 90.607 21.9426C90.3144 21.5901 90.1724 21.1568 90.1724 20.6177V15.1781H91.7937C92.2393 15.1781 92.6113 15.045 92.901 14.7831C93.1948 14.5156 93.3509 14.1631 93.3509 13.764C93.3509 13.3347 93.1948 12.9658 92.901 12.6969C92.6127 12.435 92.2393 12.3019 91.7937 12.3019H90.1724V9.30505C90.1724 8.8442 90.0178 8.45742 89.71 8.15568C89.4034 7.85394 89.0108 7.70169 88.5428 7.70169C88.0746 7.70169 87.682 7.85394 87.3754 8.15705C87.0691 8.4588 86.9144 8.84558 86.9144 9.30643V12.3033H86.2319C85.7862 12.3033 85.4129 12.4363 85.1247 12.6983C84.8307 12.9658 84.6748 13.3347 84.6748 13.764C84.6748 14.1631 84.8307 14.5156 85.1247 14.7831C85.4129 15.045 85.7862 15.1781 86.2319 15.1781H86.9144V20.6177C86.9144 21.5517 87.1164 22.4075 87.5162 23.1593C87.9188 23.9177 88.4786 24.5254 89.1821 24.9655C89.8909 25.41 90.6962 25.6362 91.5778 25.6362H92.011C92.5304 25.6362 92.9679 25.4909 93.3091 25.2055C93.6671 24.9065 93.8579 24.502 93.8579 24.033C93.8579 23.5638 93.72 23.2003 93.4484 22.9001C93.1684 22.5914 92.8049 22.4281 92.3968 22.4281Z" fill="white"/>
<path d="M106.002 12.6558C104.945 12.0427 103.739 11.7328 102.415 11.7328C101.092 11.7328 99.8817 12.0427 98.8177 12.6558C97.7549 13.2675 96.9011 14.1124 96.2797 15.1671C95.6586 16.2233 95.3438 17.4275 95.3438 18.7442C95.3438 20.061 95.6322 21.2527 96.2004 22.2979C96.7716 23.3471 97.5626 24.1892 98.5516 24.8023C99.5461 25.4195 100.684 25.7324 101.934 25.7324C103.183 25.7324 104.319 25.4195 105.314 24.8023C105.613 24.6172 105.897 24.4088 106.161 24.1797C106.191 24.5774 106.349 24.9189 106.629 25.1946C106.942 25.5046 107.339 25.661 107.809 25.661C108.278 25.661 108.675 25.5046 108.988 25.1946C109.303 24.8847 109.462 24.4938 109.462 24.033V18.7442C109.462 17.4275 109.147 16.2233 108.526 15.1671C107.905 14.1124 107.056 13.2689 106.002 12.6572V12.6558ZM104.384 22.2403C103.812 22.5846 103.149 22.7602 102.414 22.7602C101.678 22.7602 101.034 22.5846 100.454 22.2389C99.8706 21.892 99.404 21.4091 99.0655 20.8057C98.7256 20.1994 98.5529 19.5067 98.5529 18.7442C98.5529 17.9815 98.7256 17.2643 99.0655 16.658C99.404 16.0546 99.872 15.5718 100.454 15.2248C101.034 14.8791 101.694 14.7049 102.414 14.7049C103.134 14.7049 103.812 14.8791 104.384 15.2234C104.959 15.5704 105.418 16.0518 105.75 16.6553C106.084 17.2629 106.253 17.9652 106.253 18.7442C106.253 19.5232 106.084 20.2021 105.75 20.8099C105.418 21.4133 104.959 21.8947 104.385 22.2403H104.384Z" fill="white"/>
<path d="M122.931 12.6558C121.874 12.0427 120.659 11.7328 119.319 11.7328C117.979 11.7328 116.788 12.0427 115.733 12.6558C114.677 13.2675 113.831 14.1138 113.219 15.1685C112.607 16.2233 112.288 17.4234 112.271 18.7442V29.5577C112.271 30.0185 112.43 30.4093 112.745 30.7193C113.058 31.0292 113.457 31.1856 113.925 31.1856C114.393 31.1856 114.813 31.0265 115.121 30.7139C115.424 30.4052 115.578 30.0158 115.578 29.5577V24.1783C116.006 24.5431 116.482 24.8545 116.999 25.1069C117.849 25.5211 118.791 25.7309 119.8 25.7309C121.048 25.7309 122.186 25.4183 123.182 24.8011C124.171 24.188 124.962 23.3458 125.533 22.2965C126.101 21.2515 126.39 20.0554 126.39 18.7428C126.39 17.4302 126.075 16.2219 125.454 15.1658C124.832 14.111 123.984 13.2675 122.93 12.6558H122.931ZM119.319 14.7036C120.055 14.7036 120.718 14.8777 121.289 15.222C121.866 15.5704 122.329 16.0532 122.668 16.6567C123.008 17.2629 123.18 17.9652 123.18 18.7428C123.18 19.5205 123.008 20.1994 122.668 20.8057C122.328 21.4106 121.864 21.8933 121.289 22.2403C120.718 22.5846 120.055 22.7602 119.319 22.7602C118.584 22.7602 117.947 22.5901 117.36 22.2389C116.777 21.8933 116.315 21.4118 115.985 20.8084C115.652 20.2021 115.482 19.5067 115.482 18.7428C115.482 17.9788 115.651 17.2601 115.985 16.6539C116.316 16.0518 116.779 15.5704 117.36 15.2248C117.949 14.875 118.59 14.7036 119.319 14.7036Z" fill="white"/>
<path d="M138.787 12.4583C137.853 11.9604 136.784 11.708 135.61 11.708C134.436 11.708 133.451 11.9563 132.54 12.4473C132.333 12.5598 132.132 12.6819 131.941 12.8163V7.90607C131.941 7.43012 131.787 7.03513 131.479 6.73201C131.173 6.43027 130.771 6.27802 130.288 6.27802C129.805 6.27802 129.427 6.42888 129.114 6.72788C128.796 7.02964 128.635 7.42738 128.635 7.90607V24.0316C128.635 24.4938 128.794 24.8847 129.108 25.1932C129.422 25.5033 129.819 25.6595 130.288 25.6595C130.757 25.6595 131.178 25.5004 131.485 25.1878C131.788 24.8791 131.941 24.4897 131.941 24.0316V17.3438C131.941 16.8418 132.074 16.4125 132.345 16.0312C132.624 15.6403 133.008 15.3221 133.489 15.0862C133.972 14.8476 134.524 14.7269 135.13 14.7269C135.798 14.7269 136.396 14.8517 136.904 15.0986C137.403 15.3413 137.79 15.702 138.085 16.2027C138.382 16.7047 138.534 17.3753 138.534 18.1969V24.0301C138.534 24.4924 138.693 24.8832 139.008 25.1919C139.321 25.5019 139.719 25.6583 140.187 25.6583C140.655 25.6583 141.052 25.5019 141.367 25.1919C141.682 24.882 141.841 24.4909 141.841 24.0301V18.1969C141.841 16.8185 141.568 15.6348 141.028 14.6747C140.485 13.7064 139.732 12.9617 138.787 12.4583Z" fill="white"/>
<path d="M154.546 12.6297C153.49 12.0345 152.269 11.7328 150.915 11.7328C149.561 11.7328 148.316 12.0345 147.26 12.6297C146.201 13.2264 145.359 14.0603 144.753 15.1095C144.148 16.1574 143.842 17.3795 143.842 18.7428C143.842 20.1062 144.148 21.3064 144.753 22.3528C145.359 23.4034 146.201 24.2373 147.26 24.8339C148.316 25.4292 149.546 25.7309 150.915 25.7309C152.284 25.7309 153.514 25.4292 154.57 24.8339C155.629 24.2373 156.468 23.402 157.066 22.3514C157.661 21.3049 157.963 20.0911 157.963 18.7442C157.963 17.3973 157.656 16.1588 157.052 15.1109C156.446 14.0617 155.603 13.2264 154.545 12.6311L154.546 12.6297ZM150.915 22.7602C150.161 22.7602 149.49 22.5887 148.917 22.2513C148.344 21.9125 147.885 21.4393 147.554 20.8441C147.221 20.2461 147.052 19.5397 147.052 18.7442C147.052 17.9487 147.221 17.2382 147.555 16.632C147.885 16.0299 148.345 15.5526 148.917 15.2151C149.489 14.8764 150.161 14.7063 150.915 14.7063C151.669 14.7063 152.34 14.8777 152.912 15.2151C153.485 15.5539 153.938 16.0285 154.261 16.6292C154.588 17.2368 154.754 17.9487 154.754 18.7456C154.754 19.5424 154.588 20.2488 154.262 20.8482C153.94 21.4407 153.486 21.9139 152.912 22.2527C152.34 22.5914 151.669 22.7614 150.915 22.7614V22.7602Z" fill="white"/>
<path d="M170.042 12.2169C169.492 11.8589 168.71 11.6847 167.652 11.6847C166.593 11.6847 165.659 11.9261 164.795 12.402C164.508 12.5597 164.235 12.7422 163.98 12.9465C163.916 12.6626 163.791 12.4281 163.604 12.2443C163.321 11.9672 162.916 11.826 162.401 11.826C161.885 11.826 161.499 11.9713 161.21 12.2566C160.919 12.5419 160.772 12.9369 160.772 13.4307V24.0316C160.772 24.5431 160.922 24.9437 161.215 25.2221C161.505 25.4963 161.903 25.6362 162.401 25.6362C162.898 25.6362 163.327 25.4895 163.61 25.2C163.888 24.9148 164.029 24.5225 164.029 24.0328V17.1078C164.029 16.4893 164.221 15.9955 164.618 15.5991C165.029 15.1863 165.61 14.8983 166.344 14.7419C167.102 14.5814 167.974 14.5979 168.928 14.7885C169.192 14.8489 169.446 14.8585 169.677 14.816C169.929 14.7707 170.156 14.6624 170.351 14.4923C170.557 14.3126 170.695 14.0657 170.758 13.7736C170.848 13.4266 170.876 12.7627 170.039 12.2169H170.042Z" fill="white"/>
<defs>
<radialGradient id="paint0_radial_1161_26316" cx="0" cy="0" r="1" gradientUnits="userSpaceOnUse" gradientTransform="translate(21.0084 19.2857) rotate(5.34188) scale(21.2204 18.3352)">
<stop stop-color="#EABEFF"/>
<stop offset="0.6" stop-color="#695D92"/>
<stop offset="0.83" stop-color="#484076"/>
<stop offset="0.95" stop-color="#3C356C"/>
</radialGradient>
<linearGradient id="paint1_linear_1161_26316" x1="-2.40155" y1="32.2018" x2="26.6002" y2="9.37851" gradientUnits="userSpaceOnUse">
<stop stop-color="#EABEFF"/>
<stop offset="0.54" stop-color="#695D92"/>
<stop offset="0.74" stop-color="#484076"/>
<stop offset="0.85" stop-color="#3C356C"/>
</linearGradient>
<linearGradient id="paint2_linear_1161_26316" x1="15.6627" y1="37.4673" x2="28.1718" y2="16.7294" gradientUnits="userSpaceOnUse">
<stop stop-color="#EABEFF"/>
<stop offset="0.5" stop-color="#695D92"/>
<stop offset="0.68" stop-color="#484076"/>
<stop offset="0.78" stop-color="#3C356C"/>
</linearGradient>
<radialGradient id="paint3_radial_1161_26316" cx="0" cy="0" r="1" gradientUnits="userSpaceOnUse" gradientTransform="translate(22.8484 18.5035) rotate(-44.0286) scale(26.6413 10.2206)">
<stop stop-color="#EABEFF"/>
<stop offset="0.6" stop-color="#695D92"/>
<stop offset="0.83" stop-color="#484076"/>
<stop offset="0.95" stop-color="#3C356C"/>
</radialGradient>
<linearGradient id="paint4_linear_1161_26316" x1="26.5336" y1="7.78531" x2="33.4265" y2="14.7715" gradientUnits="userSpaceOnUse">
<stop stop-color="white"/>
<stop offset="1" stop-color="#EABEFF"/>
</linearGradient>
<radialGradient id="paint5_radial_1161_26316" cx="0" cy="0" r="1" gradientUnits="userSpaceOnUse" gradientTransform="translate(21.0084 19.2857) rotate(5.34188) scale(21.2204 18.3352)">
<stop stop-color="#EABEFF"/>
<stop offset="0.6" stop-color="#695D92"/>
<stop offset="0.83" stop-color="#484076"/>
<stop offset="0.95" stop-color="#3C356C"/>
</radialGradient>
</defs>
</svg>
